<?xml version="1.0" encoding="UTF-8"?>
<svg width="450px" height="450px" viewBox="0 0 450 450" version="1.1" xmlns="http://www.w3.org/2000/svg" xmlns:xlink="http://www.w3.org/1999/xlink">
    <title>bird</title>
    <g id="bird" stroke="none" stroke-width="1" fill="none" fill-rule="evenodd">
        <line x1="50" y1="320.5" x2="400" y2="320.5" id="Path-17" stroke="#000000" stroke-width="4" stroke-linecap="round"></line>
        <path d="M108.5,311.5 L119.797383,299.985981 C122.892708,270.32866 135.495103,255.5 157.604567,255.5 C161.58427,275.126168 152.298295,288.428349 129.746642,295.406542" id="Path-18" stroke="#000000" stroke-width="4" stroke-linecap="round" transform="translate(133.500000, 283.500000) scale(-1, 1) translate(-133.500000, -283.500000) "></path>
        <g transform="translate(177.000000, 112.000000)">
            <path d="M83.0568982,172.736528 C98.7344928,172.727392 114.414492,168.619843 127.621966,159.595641 C140.82944,150.571439 177.075313,158.172483 189.298217,165.330831 C191.961814,157.013342 193.484356,143.406045 192.606949,133.377239 C174.725596,138.310178 149.059457,147.29272 139.665667,140.703819 C124.594571,131.243096 134.693695,83.8739205 117.482033,39.9327571 C110.913491,20.6395143 97.6642152,6.38692783 75.2498345,8.34793205 C54.7842653,9.63652742 40.9992066,29.9151407 37.4599181,37.810702 C28.5886851,41.3939368 14.1082477,45.4679133 7.21860427,47.4742303 C13.7117523,49.0114803 42.8854419,51.3715424 43.9212694,63.2111047 C45.7801095,76.3822139 39.7872437,85.1338024 36.9380108,104.525046 C30.1534569,138.809352 46.1712802,169.684148 83.0568982,172.736528 Z" id="Oval" stroke="#000000" stroke-width="4" stroke-linecap="square" transform="translate(100.037218, 90.452012) rotate(5.000000) translate(-100.037218, -90.452012) "></path>
            <ellipse id="Oval" fill="#000000" cx="75.6815005" cy="41.6213068" rx="6.60142902" ry="6.55712412"></ellipse>
            <path d="M102.087217,172.763789 C102.087217,172.763789 102.087217,177.135205 102.087217,185.878037 L92.185073,198.172645" id="Path-19" stroke="#000000" stroke-width="4" stroke-linecap="round"></path>
            <polyline id="Path-19" stroke="#000000" stroke-width="4" stroke-linecap="round" points="74.8563218 172.763789 74.8563218 185.878037 62.4786424 198.172645"></polyline>
            <path d="M97.2972973,82.2214765 C91.8918919,119.805369 100.675676,140.387025 123.648649,143.966443" id="Path" stroke="#000000" stroke-width="4" stroke-linecap="round"></path>
        </g>
    </g>
</svg>