<?xml version="1.0" encoding="UTF-8"?>
<svg width="450px" height="450px" viewBox="0 0 450 450" version="1.1" xmlns="http://www.w3.org/2000/svg" xmlns:xlink="http://www.w3.org/1999/xlink">
    <title>bridge</title>
    <g id="bridge" stroke="none" stroke-width="1" fill="none" fill-rule="evenodd" stroke-linecap="round">
        <g id="icon" transform="translate(42.000000, 146.000000)" stroke="#000000" stroke-width="4">
            <path d="M4.33540373,26.4068323 L13.2795031,26.4068323 M12.7888199,41.6055901 L20.242236,41.6055901 M91.4161491,17.4068323 L99.4161491,17.4068323 M102.596273,26.3509317 L111.540373,26.3509317 M280.006211,16.1521739 L285.223602,16.1521739 M270.298137,26.3509317 L278,26.5 M357.006211,27.1521739 L365.006211,27.1521739 M352.298137,38.3509317 L360.298137,38.3509317 M24.2236025,26.4068323 L31.6770186,26.4068323 M184.310559,50.673913 L191.763975,50.673913 M188.273292,39.7298137 L194.745342,39.7298137 M180.329193,27.7857143 L188,28 M0,8.09006211 L364,8 M0,1 L365,1 M258.962733,62.5 L258.962733,53.5559006 L258.958739,53.0628772 C258.695461,36.8246425 245.450044,23.742236 229.149068,23.742236 C212.848092,23.742236 199.602676,36.8246425 199.339398,53.0628772 L199.339398,53.0628772 L199.335404,53.5559006 L199.335404,62.5 M341.962733,62.5 L341.962733,53.5559006 L341.958739,53.0628772 C341.695461,36.8246425 328.450044,23.742236 312.149068,23.742236 C295.848092,23.742236 282.602676,36.8246425 282.339398,53.0628772 L282.339398,53.0628772 L282.335404,53.5559006 L282.335404,62.5 M176.975155,62.5 L176.975155,53.5559006 L176.971161,53.0628772 C176.707883,36.8246425 163.462467,23.742236 147.161491,23.742236 C130.860515,23.742236 117.615098,36.8246425 117.35182,53.0628772 L117.347826,53.5559006 L117.347826,62.5 M94.9875776,62.5 L94.9875776,53.5559006 L94.9835835,53.0628772 C94.7203052,36.8246425 81.474889,23.742236 65.173913,23.742236 C48.8729371,23.742236 35.6275209,36.8246425 35.3642426,53.0628772 L35.3642426,53.0628772 L35.3602484,53.5559006 L35.3602484,62.5" id="bridge"></path>
            <g id="waves" transform="translate(10.000000, 82.000000)">
                <path d="M0,18.2066454 C7.31685157,8.07229312 16.5444491,3.00511697 27.6827927,3.00511697 C38.8211362,3.00511697 48.5343968,8.07229312 56.8225744,18.2066454 C65.8560744,8.07229312 75.569335,3.00511697 85.9623562,3.00511697 C96.3553774,3.00511697 106.068638,8.07229312 115.102138,18.2066454 C124.302256,8.42801499 134.015517,3.53869978 144.24192,3.53869978 C154.468323,3.53869978 164.181583,8.42801499 173.381701,18.2066454 C183.094265,8.42801499 192.807525,3.53869978 202.521483,3.53869978 C212.235441,3.53869978 221.948702,8.42801499 231.661265,18.2066454 C240.531367,8.07229312 250.244628,3.00511697 260.801047,3.00511697 C271.357465,3.00511697 281.070726,8.07229312 289.940828,18.2066454 C301.510072,6.06888181 312.210269,0 322.04142,0 C331.872571,0 341.192097,6.06888181 350,18.2066454" id="Path-5" transform="translate(175.000000, 9.103323) scale(1, -1) translate(-175.000000, -9.103323) "></path>
                <path d="M56.8225744,45.9536652 C65.8560744,35.8193129 75.569335,30.7521368 85.9623562,30.7521368 C96.3553774,30.7521368 106.068638,35.8193129 115.102138,45.9536652 C124.302256,36.1750348 134.015517,31.2857196 144.24192,31.2857196 C154.468323,31.2857196 164.181583,36.1750348 173.381701,45.9536652 C183.094265,36.1750348 192.807525,31.2857196 202.521483,31.2857196 C212.235441,31.2857196 221.948702,36.1750348 231.661265,45.9536652 C240.531367,35.8193129 250.244628,30.7521368 260.801047,30.7521368 C271.357465,30.7521368 281.070726,35.8193129 289.940828,45.9536652" id="Path-5" transform="translate(173.381701, 38.352901) scale(1, -1) translate(-173.381701, -38.352901) "></path>
                <path d="M115.102138,79.02692 C124.302256,69.2482896 134.015517,64.3589744 144.24192,64.3589744 C154.468323,64.3589744 164.181583,69.2482896 173.381701,79.02692 C183.094265,69.2482896 192.807525,64.3589744 202.521483,64.3589744 C212.235441,64.3589744 221.948702,69.2482896 231.661265,79.02692" id="Path-5" transform="translate(173.381701, 71.692947) scale(1, -1) translate(-173.381701, -71.692947) "></path>
            </g>
        </g>
    </g>
</svg>