<?xml version="1.0" encoding="UTF-8"?>
<svg width="450px" height="450px" viewBox="0 0 450 450" version="1.1" xmlns="http://www.w3.org/2000/svg" xmlns:xlink="http://www.w3.org/1999/xlink">
    <title>bug</title>
    <g id="bug" stroke="none" stroke-width="1" fill="none" fill-rule="evenodd">
        <g id="icon" transform="translate(75.000000, 94.000000)" stroke="#000000" stroke-width="4">
            <g id="body">
                <path d="M126.837838,108.483483 L175.864865,108.483483 C183.596851,108.483483 189.864865,114.751497 189.864865,122.483483 L189.864865,201.799191 L189.864865,201.799191 C189.864865,221.588719 177.027027,231.483483 151.351351,231.483483 C125.675676,231.483483 112.837838,221.588719 112.837838,201.799191 L112.837838,122.483483 C112.837838,114.751497 119.105851,108.483483 126.837838,108.483483 Z" id="Rectangle" stroke-linecap="square"></path>
                <line x1="150.5" y1="111.5" x2="150.5" y2="231" id="Line" stroke-linecap="round"></line>
                <path d="M139.864865,67.9429429 L146.847403,56.814523 C148.021541,54.9432411 150.490341,54.378094 152.361623,55.5522317 C152.810081,55.8336173 153.198218,56.2012298 153.50353,56.6337545 L161.486486,67.9429429 L161.486486,67.9429429" id="head" stroke-linecap="round"></path>
                <path d="M131.551092,99.6056673 L122.084784,91.0894854 C120.853028,89.9813597 120.752805,88.0845106 121.860931,86.8527544 C121.934522,86.7709536 122.012557,86.6932634 122.094683,86.6200359 L131.579133,78.1632448 C132.128722,77.6732048 132.83934,77.4024024 133.575674,77.4024024 L167.772725,77.4024024 C168.510835,77.4024024 169.22304,77.6745104 169.77311,78.1666785 L179.260515,86.6554091 C180.495271,87.760191 180.600636,89.6567614 179.495854,90.8915176 C179.422489,90.973514 179.344668,91.0514122 179.262745,91.1248592 L168.944677,100.375375 L168.944677,100.375375" id="Path" stroke-linecap="round"></path>
                <path d="M139.864865,46.996997 C139.864865,46.996997 62.8378378,-55.7057057 0,46.996997" id="Path-13" stroke-linecap="round"></path>
                <path d="M299.324324,45.6456456 C299.324324,45.6456456 222.297297,-57.0570571 159.459459,45.6456456" id="Path-13" stroke-linecap="round" transform="translate(229.391892, 22.822823) scale(-1, 1) translate(-229.391892, -22.822823) "></path>
            </g>
            <g id="foot" transform="translate(46.621622, 74.699700)" stroke-linecap="round">
                <g id="left">
                    <polyline id="Path-14" points="51.3513514 127.3003 28.3783784 127.3003 28.3783784 171.894895 14.1891892 187.435435"></polyline>
                    <polyline id="Path-15" points="55.4054054 50.6756757 31.7567568 50.6756757 18.2432432 60.1351351 0 60.1351351"></polyline>
                    <polyline id="Path-16" points="64.1891892 16.2162162 46.2881713 16.2162162 38.3906634 5.18918919 23.6486486 0"></polyline>
                </g>
                <g id="right" transform="translate(175.608108, 94.000000) scale(-1, 1) translate(-175.608108, -94.000000) translate(143.108108, 0.000000)">
                    <polyline id="Path-14" points="51.3513514 127.3003 28.3783784 127.3003 28.3783784 171.894895 14.1891892 187.435435"></polyline>
                    <polyline id="Path-15" points="55.4054054 50.6756757 31.7567568 50.6756757 18.2432432 60.1351351 0 60.1351351"></polyline>
                    <polyline id="Path-16" points="64.1891892 16.2162162 46.2881713 16.2162162 38.3906634 5.18918919 23.6486486 0"></polyline>
                </g>
            </g>
        </g>
    </g>
</svg>