<?xml version="1.0" encoding="UTF-8"?>
<svg width="450px" height="450px" viewBox="0 0 450 450" version="1.1" xmlns="http://www.w3.org/2000/svg" xmlns:xlink="http://www.w3.org/1999/xlink">
    <title>fish2</title>
    <g id="fish2" stroke="none" stroke-width="1" fill="none" fill-rule="evenodd" stroke-linecap="round">
        <g id="Group" transform="translate(75.000000, 119.000000)" stroke="#000000" stroke-width="4">
            <path d="M0,12 C9.40044398,4.10526316 19.5082607,0.157894737 30.3234501,0.157894737 C41.1386396,0.157894737 51.2464563,4.10526316 60.6469003,12 C70.2207304,4.38237318 80.3285471,0.573559768 90.9703504,0.573559768 C101.612154,0.573559768 111.71997,4.38237318 121.293801,12 C131.400892,4.38237318 141.508708,0.573559768 151.617251,0.573559768 C161.725793,0.573559768 171.83361,4.38237318 181.940701,12 C191.17111,4.10526316 201.278927,0.157894737 212.264151,0.157894737 C223.249375,0.157894737 233.357192,4.10526316 242.587601,12 C254.120962,4 264.36355,0 273.315364,0 C282.267178,0 291.162057,4 300,12" id="Path-5" transform="translate(150.000000, 6.000000) scale(1, -1) translate(-150.000000, -6.000000) "></path>
            <path d="M137.52142,147.58472 L149.352596,144.565079 L131.916805,127.075252 C129.957909,140.001301 125.981217,168.753138 112.997117,181.033229 C104.093735,189.964205 94.9289727,193.563611 81.8525961,195.62994 C83.3890558,181.820021 87.9586327,171.124508 95.5613266,163.543402 C101.398479,157.722825 108.353265,153.771904 117.634041,150.678312" id="fish1" transform="translate(115.602596, 161.352596) rotate(45.000000) translate(-115.602596, -161.352596) "></path>
            <path d="M237.52142,81.0847199 L249.352596,78.0650793 L231.916805,60.5752523 C229.957909,73.5013011 225.981217,102.253138 212.997117,114.533229 C204.093735,123.464205 194.928973,127.063611 181.852596,129.12994 C183.389056,115.320021 187.958633,104.624508 195.561327,97.0434022 C201.398479,91.2228246 208.353265,87.2719042 217.634041,84.1783121" id="fish2" transform="translate(215.602596, 94.852596) rotate(45.000000) translate(-215.602596, -94.852596) "></path>
        </g>
    </g>
</svg>