<?xml version="1.0" encoding="UTF-8"?>
<svg width="450px" height="450px" viewBox="0 0 450 450" version="1.1" xmlns="http://www.w3.org/2000/svg" xmlns:xlink="http://www.w3.org/1999/xlink">
    <!-- Generator: Sketch 63.1 (92452) - https://sketch.com -->
    <title>mountain</title>
    <desc>Created with Sketch.</desc>
    <g id="mountain" stroke="none" stroke-width="1" fill="none" fill-rule="evenodd" stroke-linecap="round">
        <path d="M154,315 L285.085874,132.781338 C288.956136,127.4014 296.454904,126.177565 301.834842,130.047827 C302.942133,130.844399 303.905507,131.82393 304.683553,132.944317 L420,299 L420,299" id="Path" stroke="#000000" stroke-width="4"></path>
        <path d="M48,315 C63.2116315,298.646852 93.4084861,266.322945 138.590564,218.028281 L138.590564,218.028281 C143.118302,213.188628 150.712073,212.935771 155.551726,217.463509 C155.771659,217.669267 155.983769,217.883233 156.187603,218.104951 C160.727311,223.042953 164.39199,227.87711 167.181641,232.607422" id="Path-2" stroke="#000000" stroke-width="4"></path>
        <polyline id="Path-3" stroke="#000000" stroke-width="4" points="248.410156 199.244141 259.597656 217 273.873047 192.361328 295 224.140137 313.925781 192.361328 329.216797 217 341.279297 199.244141"></polyline>
    </g>
</svg>