<?xml version="1.0" encoding="UTF-8"?>
<svg viewBox="0 0 450 450" version="1.1" xmlns="http://www.w3.org/2000/svg" xmlns:xlink="http://www.w3.org/1999/xlink">
    <!-- Generator: Sketch 63.1 (92452) - https://sketch.com -->
    <title>sea</title>
    <desc>Created with Sketch.</desc>
    <g id="sea" stroke="none" stroke-width="1" fill="none" fill-rule="evenodd" stroke-linecap="round">
        <g id="Group" transform="translate(46.000000, 203.000000)" stroke="#000000" stroke-width="4">
            <path d="M0,21.5879397 C9.03437048,7.1959799 20.4280053,0 34.1809045,0 C47.9338037,0 59.9271036,7.1959799 70.160804,21.5879397 C81.3147798,7.1959799 93.3080797,0 106.140704,0 C118.973327,0 130.966627,7.1959799 142.120603,21.5879397 C153.480308,7.70114636 165.473608,0.757749694 178.100503,0.757749694 C190.727397,0.757749694 202.720697,7.70114636 214.080402,21.5879397 C226.072841,7.70114636 238.066141,0.757749694 250.060302,0.757749694 C262.054462,0.757749694 274.047762,7.70114636 286.040201,21.5879397 C296.992424,7.1959799 308.985724,0 322.020101,0 C335.054477,0 347.047777,7.1959799 358,21.5879397" id="Path-5" transform="translate(179.000000, 10.793970) scale(1, -1) translate(-179.000000, -10.793970) "></path>
            <path d="M0,83.0653266 C9.03437048,68.6733668 20.4280053,61.4773869 34.1809045,61.4773869 C47.9338037,61.4773869 59.9271036,68.6733668 70.160804,83.0653266 C81.3147798,68.6733668 93.3080797,61.4773869 106.140704,61.4773869 C118.973327,61.4773869 130.966627,68.6733668 142.120603,83.0653266 C153.480308,69.1785333 165.473608,62.2351366 178.100503,62.2351366 C190.727397,62.2351366 202.720697,69.1785333 214.080402,83.0653266 C226.072841,69.1785333 238.066141,62.2351366 250.060302,62.2351366 C262.054462,62.2351366 274.047762,69.1785333 286.040201,83.0653266 C296.992424,68.6733668 308.985724,61.4773869 322.020101,61.4773869 C335.054477,61.4773869 347.047777,68.6733668 358,83.0653266" id="Path-5" transform="translate(179.000000, 72.271357) scale(1, -1) translate(-179.000000, -72.271357) "></path>
            <path d="M0,143.442211 C9.03437048,129.050251 20.4280053,121.854271 34.1809045,121.854271 C47.9338037,121.854271 59.9271036,129.050251 70.160804,143.442211 C81.3147798,129.050251 93.3080797,121.854271 106.140704,121.854271 C118.973327,121.854271 130.966627,129.050251 142.120603,143.442211 C153.480308,129.555418 165.473608,122.612021 178.100503,122.612021 C190.727397,122.612021 202.720697,129.555418 214.080402,143.442211 C226.072841,129.555418 238.066141,122.612021 250.060302,122.612021 C262.054462,122.612021 274.047762,129.555418 286.040201,143.442211 C296.992424,129.050251 308.985724,121.854271 322.020101,121.854271 C335.054477,121.854271 347.047777,129.050251 358,143.442211" id="Path-5" transform="translate(179.000000, 132.648241) scale(1, -1) translate(-179.000000, -132.648241) "></path>
        </g>
        <path d="M283.613281,198.246094 C295.133867,174.91276 311.800533,163.246094 333.613281,163.246094 C355.426029,163.246094 372.092696,174.91276 383.613281,198.246094" id="Path-6" stroke="#000000" stroke-width="4"></path>
        <g id="tree1" transform="translate(265.929684, 57.357422)" stroke="#000000" stroke-width="4">
            <path d="M61.5371125,96.0878906 C61.5371125,64.4407552 58.5859406,44.5449219 52.6835969,36.4003906 C43.7812531,25.0117187 31.0156281,15.0230281 2.13162821e-14,36.4003906 C15.2786479,36.2545573 29.983076,37.3079427 44.1132844,39.5605469" id="Path-7"></path>
            <path d="M52.5644562,24.3916016 C61.9882844,16.7578125 80.3984406,8.75254169 97.5410187,22.4791042 C87.6946646,24.2655625 74.8066437,27.3955747 58.8769562,31.8691406" id="Path-8"></path>
            <path d="M50.0039094,15.0230281 C46.8958364,5.9621031 40.5664094,0.954427083 31.0156281,8.8817842e-15 C36.1901073,12.7122396 38.7773469,20.6761068 38.7773469,23.8916016" id="Path-9"></path>
        </g>
        <g id="tree2" transform="translate(363.344807, 126.918672) scale(-1, 1) rotate(-10.000000) translate(-363.344807, -126.918672) translate(332.344807, 95.918672)" stroke="#000000" stroke-width="4">
            <path d="M44.1579605,61.1821399 C44.3921481,59.8539958 42.6992209,33.734375 36.5559652,25.2574139 C30.3788287,17.3550702 21.5210481,10.4241419 1.42108547e-14,25.2574139 C10.6015108,25.1562234 20.2887512,25.9226506 29.0617212,27.5566953" id="Path-7"></path>
            <path d="M36.4732962,16.9247848 C42.6938113,11.6757802 49.9922197,7.08542982 61.8870698,16.6099834 C55.0549057,17.8495667 48.0436818,19.6839993 40.8533982,22.1132812" id="Path-8"></path>
            <path d="M34.6965902,10.4241419 C32.5399681,4.1369695 28.1481208,0.662255527 21.5210481,6.16287067e-15 C25.111503,8.82073767 26.9067305,14.3466863 26.9067305,16.577846" id="Path-9"></path>
        </g>
    </g>
</svg>