<?xml version="1.0" encoding="UTF-8"?>
<svg viewBox="0 0 450 450" version="1.1" xmlns="http://www.w3.org/2000/svg" xmlns:xlink="http://www.w3.org/1999/xlink">
    <!-- Generator: Sketch 63.1 (92452) - https://sketch.com -->
    <title>sea</title>
    <desc>Created with Sketch.</desc>
    <g id="sea" stroke="none" stroke-width="1" fill="none" fill-rule="evenodd" stroke-linecap="round">
        <g id="Group" transform="translate(60.000000, 223.000000)" stroke="#000000" stroke-width="4">
            <path d="M0,19.8994975 C8.32777167,6.63316583 18.8302842,0 31.5075377,0 C44.1847911,0 55.2400675,6.63316583 64.6733668,19.8994975 C74.9549647,6.63316583 86.010241,0 97.839196,0 C109.668151,0 120.723427,6.63316583 131.005025,19.8994975 C141.476262,7.09882207 152.531538,0.698484355 164.170854,0.698484355 C175.810171,0.698484355 186.865447,7.09882207 197.336683,19.8994975 C208.391166,7.09882207 219.446442,0.698484355 230.502513,0.698484355 C241.558583,0.698484355 252.613859,7.09882207 263.668342,19.8994975 C273.763967,6.63316583 284.819243,0 296.834171,0 C308.849099,0 319.904375,6.63316583 330,19.8994975" id="Path-5" transform="translate(165.000000, 9.949749) scale(1, -1) translate(-165.000000, -9.949749) "></path>
            <path d="M0,76.5685972 C8.32777167,63.3022655 18.8302842,56.6690997 31.5075377,56.6690997 C44.1847911,56.6690997 55.2400675,63.3022655 64.6733668,76.5685972 C74.9549647,63.3022655 86.010241,56.6690997 97.839196,56.6690997 C109.668151,56.6690997 120.723427,63.3022655 131.005025,76.5685972 C141.476262,63.7679218 152.531538,57.367584 164.170854,57.367584 C175.810171,57.367584 186.865447,63.7679218 197.336683,76.5685972 C208.391166,63.7679218 219.446442,57.367584 230.502513,57.367584 C241.558583,57.367584 252.613859,63.7679218 263.668342,76.5685972 C273.763967,63.3022655 284.819243,56.6690997 296.834171,56.6690997 C308.849099,56.6690997 319.904375,63.3022655 330,76.5685972" id="Path-5" transform="translate(165.000000, 66.618848) scale(1, -1) translate(-165.000000, -66.618848) "></path>
            <path d="M0,132.223267 C8.32777167,118.956936 18.8302842,112.32377 31.5075377,112.32377 C44.1847911,112.32377 55.2400675,118.956936 64.6733668,132.223267 C74.9549647,118.956936 86.010241,112.32377 97.839196,112.32377 C109.668151,112.32377 120.723427,118.956936 131.005025,132.223267 C141.476262,119.422592 152.531538,113.022254 164.170854,113.022254 C175.810171,113.022254 186.865447,119.422592 197.336683,132.223267 C208.391166,119.422592 219.446442,113.022254 230.502513,113.022254 C241.558583,113.022254 252.613859,119.422592 263.668342,132.223267 C273.763967,118.956936 284.819243,112.32377 296.834171,112.32377 C308.849099,112.32377 319.904375,118.956936 330,132.223267" id="Path-5" transform="translate(165.000000, 122.273518) scale(1, -1) translate(-165.000000, -122.273518) "></path>
        </g>
        <path d="M273.613281,217.246094 C285.133867,193.91276 301.800533,182.246094 323.613281,182.246094 C345.426029,182.246094 362.092696,193.91276 373.613281,217.246094" id="Path-6" stroke="#000000" stroke-width="4"></path>
        <g id="tree1" transform="translate(255.929684, 76.357422)" stroke="#000000" stroke-width="4">
            <path d="M61.5371125,96.0878906 C61.5371125,64.4407552 58.5859406,44.5449219 52.6835969,36.4003906 C43.7812531,25.0117187 31.0156281,15.0230281 2.13162821e-14,36.4003906 C15.2786479,36.2545573 29.983076,37.3079427 44.1132844,39.5605469" id="Path-7"></path>
            <path d="M52.5644562,24.3916016 C61.9882844,16.7578125 80.3984406,8.75254169 97.5410187,22.4791042 C87.6946646,24.2655625 74.8066437,27.3955747 58.8769562,31.8691406" id="Path-8"></path>
            <path d="M50.0039094,15.0230281 C46.8958364,5.9621031 40.5664094,0.954427083 31.0156281,8.8817842e-15 C36.1901073,12.7122396 38.7773469,20.6761068 38.7773469,23.8916016" id="Path-9"></path>
        </g>
        <g id="tree2" transform="translate(353.344807, 145.918672) scale(-1, 1) rotate(-10.000000) translate(-353.344807, -145.918672) translate(322.344807, 114.918672)" stroke="#000000" stroke-width="4">
            <path d="M44.1579605,61.1821399 C44.3921481,59.8539958 42.6992209,33.734375 36.5559652,25.2574139 C30.3788287,17.3550702 21.5210481,10.4241419 1.42108547e-14,25.2574139 C10.6015108,25.1562234 20.2887512,25.9226506 29.0617212,27.5566953" id="Path-7"></path>
            <path d="M36.4732962,16.9247848 C42.6938113,11.6757802 49.9922197,7.08542982 61.8870698,16.6099834 C55.0549057,17.8495667 48.0436818,19.6839993 40.8533982,22.1132812" id="Path-8"></path>
            <path d="M34.6965902,10.4241419 C32.5399681,4.1369695 28.1481208,0.662255527 21.5210481,6.16287067e-15 C25.111503,8.82073767 26.9067305,14.3466863 26.9067305,16.577846" id="Path-9"></path>
        </g>
    </g>
</svg>