<?xml version="1.0" encoding="UTF-8"?>
<svg width="450px" height="450px" viewBox="0 0 450 450" version="1.1" xmlns="http://www.w3.org/2000/svg" xmlns:xlink="http://www.w3.org/1999/xlink">
    <title>stars-sky</title>
    <g id="stars-sky" stroke="none" stroke-width="1" fill="none" fill-rule="evenodd">
        <circle id="Oval" fill="#000000" cx="84" cy="64" r="2"></circle>
        <circle id="Oval" fill="#000000" cx="315" cy="81" r="2"></circle>
        <circle id="Oval" fill="#000000" cx="164" cy="192" r="2"></circle>
        <circle id="Oval" fill="#000000" cx="44" cy="222" r="2"></circle>
        <circle id="Oval" fill="#000000" cx="383" cy="118" r="2"></circle>
        <path d="M273,114 L274,118.5 L274,126.6 L280,126.6 L285,127.6 L280,128.6 L274,128.6 L274,136.5 L273,141 L272,136.5 L272,128.6 L266,128.6 L261,127.6 L266,126.6 L272,126.6 L272,118.5 L273,114 Z" id="x" fill="#000000"></path>
        <path d="M168,44 L169.416667,50.375 L169.416,61.849 L177.916667,61.85 L185,63.125 L177.916667,64.4 L169.416,64.4 L169.416667,75.875 L168,82.25 L166.583333,75.875 L166.583,64.4 L158.083333,64.4 L151,63.125 L158.083333,61.85 L166.583,61.849 L166.583333,50.375 L168,44 Z" id="x" fill="#000000"></path>
        <path d="M318,34 L319,36.625 L319,41 L322.083333,41 L325,42 L322.083333,43 L319,43 L319,47.125 L318,49.75 L317,47.125 L317,43 L313.916667,43 L311,42 L313.916667,41 L317,41 L317,36.625 L318,34 Z" id="x" fill="#000000"></path>
        <path d="M388,174 L389,176.625 L389,181 L392.083333,181 L395,182 L392.083333,183 L389,183 L389,187.125 L388,189.75 L387,187.125 L387,183 L383.916667,183 L381,182 L383.916667,181 L387,181 L387,176.625 L388,174 Z" id="x" fill="#000000"></path>
        <path d="M98,134 L99,136.625 L99,141 L102.083333,141 L105,142 L102.083333,143 L99,143 L99,147.125 L98,149.75 L97,147.125 L97,143 L93.9166667,143 L91,142 L93.9166667,141 L97,141 L97,136.625 L98,134 Z" id="x" fill="#000000"></path>
        <g id="land" transform="translate(44.000000, 329.000000)" stroke="#000000">
            <path d="M0,47.5 L269,47.5 C270.104569,47.5 271,46.6045695 271,45.5 L271,27.344521 C271,26.8045883 271.218306,26.2875938 271.60529,25.9110691 L288.103838,9.8584279 C288.880798,9.10246692 290.118575,9.1031107 290.894748,9.85987948 L308.8962,27.4112953 C309.282275,27.7877184 309.5,28.3040848 309.5,28.8432955 L309.5,45.5 C309.5,46.6045695 310.395431,47.5 311.5,47.5 L362.5,47.5 L362.5,47.5" id="Path-4" stroke-width="4" stroke-linecap="round"></path>
            <g id="tree1" transform="translate(33.000000, 0.000000)" stroke-width="3">
                <path d="M9.65207695,0 C14.6502801,12.3958333 17.6849034,20.1875 18.7559469,23.375 C20.3625122,28.15625 16.6138599,34 9.65207695,34 C0.548206962,34 -1.05835833,27.09375 0.548206962,23.375 C1.61925049,20.8958333 4.65387382,13.1041667 9.65207695,0 Z" id="Triangle" stroke-linecap="square"></path>
                <line x1="9.5" y1="28.5" x2="9.5" y2="45.5" id="Line" stroke-linecap="round"></line>
            </g>
            <g id="tree1" transform="translate(63.000000, 0.000000)" stroke-width="3">
                <path d="M9.65207695,0 C14.6502801,12.3958333 17.6849034,20.1875 18.7559469,23.375 C20.3625122,28.15625 16.6138599,34 9.65207695,34 C0.548206962,34 -1.05835833,27.09375 0.548206962,23.375 C1.61925049,20.8958333 4.65387382,13.1041667 9.65207695,0 Z" id="Triangle" stroke-linecap="square"></path>
                <line x1="9.5" y1="28.5" x2="9.5" y2="45.5" id="Line" stroke-linecap="round"></line>
            </g>
        </g>
    </g>
</svg>